<?xml version="1.0" standalone="no"?>
<svg xmlns:xlink="http://www.w3.org/1999/xlink" id="wave" style="transform:rotate(180deg); transition: 0.3s" viewBox="0 0 1440 100" version="1.1" xmlns="http://www.w3.org/2000/svg"><defs><linearGradient id="sw-gradient-0" x1="0" x2="0" y1="1" y2="0"><stop stop-color="rgba(241, 247, 252, 1)" offset="0%"/><stop stop-color="rgba(214.969, 229.528, 241.659, 1)" offset="100%"/></linearGradient></defs><path style="transform:translate(0, 0px); opacity:1" fill="url(#sw-gradient-0)" d="M0,70L13.3,61.7C26.7,53,53,37,80,31.7C106.7,27,133,33,160,31.7C186.7,30,213,20,240,13.3C266.7,7,293,3,320,1.7C346.7,0,373,0,400,0C426.7,0,453,0,480,3.3C506.7,7,533,13,560,26.7C586.7,40,613,60,640,58.3C666.7,57,693,33,720,23.3C746.7,13,773,17,800,28.3C826.7,40,853,60,880,61.7C906.7,63,933,47,960,43.3C986.7,40,1013,50,1040,45C1066.7,40,1093,20,1120,11.7C1146.7,3,1173,7,1200,10C1226.7,13,1253,17,1280,25C1306.7,33,1333,47,1360,50C1386.7,53,1413,47,1440,43.3C1466.7,40,1493,40,1520,43.3C1546.7,47,1573,53,1600,61.7C1626.7,70,1653,80,1680,80C1706.7,80,1733,70,1760,55C1786.7,40,1813,20,1840,16.7C1866.7,13,1893,27,1907,33.3L1920,40L1920,100L1906.7,100C1893.3,100,1867,100,1840,100C1813.3,100,1787,100,1760,100C1733.3,100,1707,100,1680,100C1653.3,100,1627,100,1600,100C1573.3,100,1547,100,1520,100C1493.3,100,1467,100,1440,100C1413.3,100,1387,100,1360,100C1333.3,100,1307,100,1280,100C1253.3,100,1227,100,1200,100C1173.3,100,1147,100,1120,100C1093.3,100,1067,100,1040,100C1013.3,100,987,100,960,100C933.3,100,907,100,880,100C853.3,100,827,100,800,100C773.3,100,747,100,720,100C693.3,100,667,100,640,100C613.3,100,587,100,560,100C533.3,100,507,100,480,100C453.3,100,427,100,400,100C373.3,100,347,100,320,100C293.3,100,267,100,240,100C213.3,100,187,100,160,100C133.3,100,107,100,80,100C53.3,100,27,100,13,100L0,100Z"/></svg>